
<svg xmlns="http://www.w3.org/2000/svg" xmlns:xlink="http://www.w3.org/1999/xlink" x="0px" y="0px"
	 viewBox="0 0 478.185 478.185" style="enable-background:new 0 0 478.185 478.185;" xml:space="preserve">
<g>
	<path id="Google_3_" d="M395.821,0H266.318c-33.83,0-76.506,4.981-112.309,34.428c-27.016,23.291-40.166,55.228-40.166,84.117
		c0,48.952,37.675,98.621,104.24,98.621c6.296,0,13.11-0.697,20.103-1.335c-3.128,7.471-6.316,13.767-6.316,24.506
		c0,19.366,10.061,31.32,18.848,42.616c-28.212,1.952-80.989,5.061-119.979,28.929c-37.098,21.916-48.374,53.853-48.374,76.586
		c0,46.402,44.011,89.716,135.062,89.716c108.005,0,165.166-59.671,165.166-118.704c0-43.254-25.024-64.632-52.658-87.803
		l-22.733-17.573c-6.953-5.658-16.258-13.15-16.258-26.957c0-13.907,9.324-22.613,17.592-30.782
		c26.279-20.72,52.758-42.696,52.758-89.038c0-47.737-30.204-72.84-44.609-84.755h38.97L395.821,0z M340.533,383.946
		c0,38.851-31.977,67.919-92.286,67.919c-67.302,0-110.615-32.097-110.615-76.586c0-44.669,40.246-59.671,54.033-64.692
		c26.419-8.826,60.348-9.982,66.007-9.982c6.236,0,9.344,0,14.464,0.578C319.832,334.974,340.533,352.029,340.533,383.946z
		 M290.326,181.922c-10.101,9.962-27.016,17.533-42.836,17.533c-53.973,0-78.439-69.653-78.439-111.691
		c0-16.297,3.168-33.213,13.787-46.422c10.061-12.552,27.694-20.681,43.991-20.681c52.04,0,79.136,70.27,79.136,115.437
		C305.966,147.414,304.81,167.457,290.326,181.922z"/>
</g>

</svg>
